# xmcd
#
# Track frame offsets: 
#        150
#        22060
#        35817
#        57722
#        85225
#        102777
#        120392
#        133920
#        156447
#
# Disc length: 2428 seconds
#
# Revision: 1
# Processed by: cddbd v1.5.2PL0 Copyright (c) Steve Scherf et al.
# Submitted via: ExactAudioCopyFreeDBPlugin 1.0
#
DISCID=7f097a09
DTITLE=Steppenwolf - Steppenwolf 7 (MCAD-1598)
DYEAR=1970
DGENRE=Blues - Rock
TTITLE0=Ball Crusher
TTITLE1=Forty Days and Forty Nights
TTITLE2=Fat Jack
TTITLE3=Renegade
TTITLE4=Foggy Mental Breakdown
TTITLE5=Snowblind Friend
TTITLE6=Who Needs Ya
TTITLE7=Earschplittenloudenboomer
TTITLE8=Hippo Stomp
EXTD=
EXTT0=
EXTT1=
EXTT2=
EXTT3=
EXTT4=
EXTT5=
EXTT6=
EXTT7=
EXTT8=
PLAYORDER=
